<svg width="37" height="37" viewBox="0 0 37 37" fill="none" xmlns="http://www.w3.org/2000/svg">
<path d="M18.5 18.5C24.3391 18.5 29.0714 14.3592 29.0714 9.25C29.0714 4.14082 24.3391 0 18.5 0C12.6609 0 7.92857 4.14082 7.92857 9.25C7.92857 14.3592 12.6609 18.5 18.5 18.5ZM25.9 20.8125H24.5208C22.6873 21.5496 20.6473 21.9688 18.5 21.9688C16.3527 21.9688 14.321 21.5496 12.4792 20.8125H11.1C4.97187 20.8125 0 25.1629 0 30.525V33.5312C0 35.4463 1.77567 37 3.96429 37H33.0357C35.2243 37 37 35.4463 37 33.5312V30.525C37 25.1629 32.0281 20.8125 25.9 20.8125Z" fill="#C92127"/>
</svg>
