<svg width="42" height="38" viewBox="0 0 42 38" fill="none" xmlns="http://www.w3.org/2000/svg">
<path d="M33.9244 22.775L36.961 7.74376C37.1803 6.65847 36.447 5.625 35.4577 5.625H10.2269L9.63812 2.38678C9.4914 1.57964 8.86009 1 8.12773 1H1.54167C0.690217 1 0 1.77649 0 2.73438V3.89062C0 4.84851 0.690217 5.625 1.54167 5.625H6.03068L10.5431 30.4435C9.46359 31.142 8.73611 32.4516 8.73611 33.9531C8.73611 36.1882 10.3466 38 12.3333 38C14.32 38 15.9306 36.1882 15.9306 33.9531C15.9306 32.8204 15.5164 31.7971 14.8499 31.0625H28.3168C27.6502 31.7971 27.2361 32.8204 27.2361 33.9531C27.2361 36.1882 28.8466 38 30.8333 38C32.82 38 34.4306 36.1882 34.4306 33.9531C34.4306 32.3509 33.6027 30.9662 32.4021 30.3106L32.7564 28.5563C32.9757 27.471 32.2424 26.4375 31.2531 26.4375H14.011L13.5906 24.125H32.4211C33.1409 24.125 33.7649 23.5647 33.9244 22.775Z" fill="#C92127"/>
<circle cx="35.5" cy="6.5" r="6.5" fill="#397CFE"/>
<path d="M35.4987 10.1598C34.8879 10.1574 34.3623 10.0071 33.922 9.70881C33.484 9.41051 33.1466 8.97846 32.9099 8.41264C32.6755 7.84683 32.5595 7.16619 32.5619 6.37074C32.5619 5.57765 32.6791 4.90175 32.9134 4.34304C33.1502 3.78433 33.4875 3.35937 33.9255 3.06818C34.3659 2.77462 34.8902 2.62784 35.4987 2.62784C36.1071 2.62784 36.6303 2.77462 37.0683 3.06818C37.5086 3.36174 37.8472 3.78788 38.0839 4.34659C38.3206 4.90294 38.4378 5.57765 38.4355 6.37074C38.4355 7.16856 38.3171 7.85038 38.0803 8.41619C37.846 8.98201 37.5098 9.41406 37.0718 9.71236C36.6338 10.0107 36.1095 10.1598 35.4987 10.1598ZM35.4987 8.88494C35.9153 8.88494 36.248 8.67543 36.4965 8.25639C36.7451 7.83736 36.8682 7.20881 36.8659 6.37074C36.8659 5.81913 36.809 5.35985 36.6954 4.9929C36.5841 4.62595 36.4255 4.35014 36.2195 4.16548C36.016 3.98082 35.7757 3.88849 35.4987 3.88849C35.0844 3.88849 34.7529 4.09564 34.5044 4.50994C34.2558 4.92424 34.1303 5.54451 34.1279 6.37074C34.1279 6.92945 34.1836 7.39583 34.2948 7.76989C34.4085 8.14157 34.5683 8.42093 34.7742 8.60795C34.9802 8.79261 35.2217 8.88494 35.4987 8.88494Z" fill="white"/>
</svg>
