<svg width="25" height="20" viewBox="0 0 25 20" fill="none" xmlns="http://www.w3.org/2000/svg">
<path d="M25 8.21436V8.92864C25 9.52038 24.5336 10.0001 23.9583 10.0001H23.6111L22.4777 18.1602C22.3311 19.2159 21.4521 20 20.4154 20H4.58464C3.54787 20 2.66888 19.2159 2.52222 18.1602L1.38889 10.0001H1.04167C0.466363 10.0001 0 9.52038 0 8.92864V8.21436C0 7.62262 0.466363 7.14294 1.04167 7.14294H3.96445L8.599 0.588471C9.05017 -0.0495607 9.91875 -0.190676 10.5391 0.273384C11.1595 0.737443 11.2967 1.63088 10.8455 2.26895L7.39918 7.14294H17.6008L14.1545 2.26891C13.7033 1.63087 13.8405 0.737399 14.4609 0.273339C15.0812 -0.190721 15.9499 -0.0496499 16.401 0.588426L21.0355 7.14294H23.9583C24.5336 7.14294 25 7.62262 25 8.21436ZM13.5417 16.0715V11.0715C13.5417 10.4797 13.0753 10.0001 12.5 10.0001C11.9247 10.0001 11.4583 10.4797 11.4583 11.0715V16.0715C11.4583 16.6632 11.9247 17.1429 12.5 17.1429C13.0753 17.1429 13.5417 16.6632 13.5417 16.0715ZM18.4028 16.0715V11.0715C18.4028 10.4797 17.9364 10.0001 17.3611 10.0001C16.7858 10.0001 16.3194 10.4797 16.3194 11.0715V16.0715C16.3194 16.6632 16.7858 17.1429 17.3611 17.1429C17.9364 17.1429 18.4028 16.6632 18.4028 16.0715ZM8.68056 16.0715V11.0715C8.68056 10.4797 8.21419 10.0001 7.63889 10.0001C7.06358 10.0001 6.59722 10.4797 6.59722 11.0715V16.0715C6.59722 16.6632 7.06358 17.1429 7.63889 17.1429C8.21419 17.1429 8.68056 16.6632 8.68056 16.0715Z" fill="#FFFAFA"/>
</svg>
