<svg width="32" height="21" viewBox="0 0 32 21" fill="none" xmlns="http://www.w3.org/2000/svg">
<path d="M31.3937 6.93438C31.6375 6.76484 32 6.92344 32 7.19141V18.375C32 19.8242 30.6562 21 29 21H3C1.34375 21 0 19.8242 0 18.375V7.19688C0 6.92344 0.35625 6.77031 0.60625 6.93984C2.00625 7.89141 3.8625 9.1 10.2375 13.1523C11.5563 13.9945 13.7812 15.7664 16 15.7555C18.2313 15.7719 20.5 13.9617 21.7687 13.1523C28.1437 9.1 29.9937 7.88594 31.3937 6.93438ZM16 14C17.45 14.0219 19.5375 12.4031 20.5875 11.7359C28.8812 6.46953 29.5125 6.01016 31.425 4.69766C31.7875 4.45156 32 4.06875 32 3.66406V2.625C32 1.17578 30.6562 0 29 0H3C1.34375 0 0 1.17578 0 2.625V3.66406C0 4.06875 0.2125 4.44609 0.575 4.69766C2.4875 6.00469 3.11875 6.46953 11.4125 11.7359C12.4625 12.4031 14.55 14.0219 16 14Z" fill="white"/>
</svg>
