<svg width="124" height="16" viewBox="0 0 124 16" fill="none" xmlns="http://www.w3.org/2000/svg">
<path d="M0.355114 15L2.76989 0.454545H12.4006L11.9744 2.99006H5.41903L4.85085 6.45597H10.767L10.3409 8.99148H4.42472L3.4304 15H0.355114ZM12.0543 15L14.4691 0.454545H17.5444L15.5558 12.4645H21.7915L21.3654 15H12.0543ZM26.2802 15H22.9847L30.4208 0.454545H34.3839L36.9833 15H33.6879L31.9194 3.77841H31.8058L26.2802 15ZM27.033 9.28267H34.8171L34.4052 11.6832H26.6211L27.033 9.28267ZM52.6207 15L55.0355 0.454545H58.1108L57.1165 6.45597H63.3594L64.3537 0.454545H67.4219L65.0071 15H61.9389L62.9332 8.99148H56.6903L55.696 15H52.6207ZM81.7667 4.6804C81.7904 4.08854 81.6175 3.63163 81.2482 3.30966C80.8836 2.98769 80.332 2.8267 79.5934 2.8267C79.0915 2.8267 78.6559 2.89773 78.2866 3.03977C77.9173 3.17708 77.6213 3.36884 77.3988 3.61506C77.181 3.85653 77.046 4.13589 76.994 4.45312C76.9419 4.71354 76.9585 4.94081 77.0437 5.13494C77.1336 5.32907 77.2733 5.49716 77.4627 5.6392C77.6568 5.77651 77.8865 5.89725 78.1516 6.00142C78.4168 6.10085 78.6985 6.18608 78.9968 6.2571L80.2468 6.5696C80.8576 6.71165 81.4068 6.90104 81.8945 7.13778C82.387 7.37453 82.7989 7.66572 83.1303 8.01136C83.4665 8.35701 83.7032 8.7642 83.8406 9.23295C83.9779 9.7017 83.9968 10.2391 83.8974 10.8452C83.7459 11.7353 83.3931 12.5071 82.8391 13.1605C82.2852 13.8092 81.5584 14.3134 80.6587 14.6733C79.7591 15.0284 78.7174 15.206 77.5337 15.206C76.3595 15.206 75.3675 15.026 74.5579 14.6662C73.7482 14.3063 73.1587 13.7737 72.7894 13.0682C72.4248 12.358 72.3159 11.4796 72.4627 10.4332H75.4386C75.3865 10.9209 75.4575 11.3281 75.6516 11.6548C75.8505 11.9768 76.1464 12.2206 76.5394 12.3864C76.9324 12.5473 77.3941 12.6278 77.9244 12.6278C78.4499 12.6278 78.9163 12.5521 79.3235 12.4006C79.7354 12.2491 80.0692 12.0384 80.3249 11.7685C80.5806 11.4986 80.7369 11.1884 80.7937 10.8381C80.8505 10.5114 80.8008 10.2367 80.6445 10.0142C80.4883 9.79167 80.2373 9.60227 79.8917 9.44602C79.5508 9.28504 79.127 9.14299 78.6204 9.01989L77.1005 8.62216C75.9263 8.32386 75.0385 7.85748 74.4371 7.22301C73.8358 6.58854 73.6204 5.7339 73.7908 4.65909C73.9424 3.77841 74.3093 3.009 74.8917 2.35085C75.4788 1.68797 76.2174 1.17424 77.1076 0.809659C78.0025 0.44034 78.9802 0.255681 80.0408 0.255681C81.1204 0.255681 82.0318 0.442708 82.7752 0.816761C83.5186 1.18608 84.0607 1.70218 84.4016 2.36506C84.7425 3.02794 84.8467 3.79972 84.7141 4.6804H81.7667ZM87.4521 15H84.1566L91.5927 0.454545H95.5558L98.1552 15H94.8597L93.0913 3.77841H92.9776L87.4521 15ZM88.2049 9.28267H95.989L95.5771 11.6832H87.793L88.2049 9.28267ZM99.9059 15L102.321 0.454545H105.396L103.407 12.4645H109.643L109.217 15H99.9059ZM111.254 15L113.668 0.454545H123.469L123.043 2.99006H116.317L115.749 6.45597H121.971L121.545 8.99148H115.323L114.755 12.4645H121.509L121.083 15H111.254Z" fill="#FF615C"/>
</svg>
