<svg width="37" height="37" viewBox="0 0 37 37" fill="none" xmlns="http://www.w3.org/2000/svg">
<path d="M18.5 37C21.417 37 23.7832 34.9296 23.7832 32.375H13.2168C13.2168 34.9296 15.583 37 18.5 37ZM36.2889 26.1811C34.6932 24.6809 31.7076 22.424 31.7076 15.0312C31.7076 9.41621 27.2082 4.92129 21.1412 3.81852V2.3125C21.1412 1.03557 19.9585 0 18.5 0C17.0415 0 15.8588 1.03557 15.8588 2.3125V3.81852C9.79181 4.92129 5.29236 9.41621 5.29236 15.0312C5.29236 22.424 2.30677 24.6809 0.711149 26.1811C0.215614 26.6472 -0.00407235 27.2044 5.71011e-05 27.75C0.00914189 28.9352 1.07206 30.0625 2.65116 30.0625H34.3488C35.9279 30.0625 36.9917 28.9352 36.9999 27.75C37.0041 27.2044 36.7844 26.6465 36.2889 26.1811Z" fill="#C92127"/>
</svg>
