<svg width="128" height="18" viewBox="0 0 128 18" fill="none" xmlns="http://www.w3.org/2000/svg">
<path d="M7.49291 1.02029L5.44398 5.32312L0.859753 6.01534C0.0376677 6.13884 -0.291794 7.18854 0.304375 7.78977L3.62095 11.1371L2.83652 15.8657C2.69532 16.7204 3.56448 17.3606 4.29243 16.9609L8.39344 14.7282L12.4945 16.9609C13.2224 17.3574 14.0916 16.7204 13.9504 15.8657L13.1659 11.1371L16.4825 7.78977C17.0787 7.18854 16.7492 6.13884 15.9271 6.01534L11.3429 5.32312L9.29397 1.02029C8.92686 0.253326 7.86317 0.243576 7.49291 1.02029Z" fill="#F7A443"/>
<path d="M35.1913 1.02029L33.1423 5.32312L28.5581 6.01534C27.736 6.13884 27.4066 7.18854 28.0027 7.78977L31.3193 11.1371L30.5349 15.8657C30.3937 16.7204 31.2628 17.3606 31.9908 16.9609L36.0918 14.7282L40.1928 16.9609C40.9208 17.3574 41.7899 16.7204 41.6487 15.8657L40.8643 11.1371L44.1809 7.78977C44.777 7.18854 44.4476 6.13884 43.6255 6.01534L39.0413 5.32312L36.9923 1.02029C36.6252 0.253326 35.5615 0.243576 35.1913 1.02029Z" fill="#F6A443"/>
<path d="M62.8896 1.02029L60.8407 5.32312L56.2565 6.01534C55.4344 6.13884 55.1049 7.18854 55.7011 7.78977L59.0177 11.1371L58.2333 15.8657C58.0921 16.7204 58.9612 17.3606 59.6892 16.9609L63.7902 14.7282L67.8912 16.9609C68.6191 17.3574 69.4883 16.7204 69.3471 15.8657L68.5627 11.1371L71.8792 7.78977C72.4754 7.18854 72.1459 6.13884 71.3239 6.01534L66.7396 5.32312L64.6907 1.02029C64.3236 0.253326 63.2599 0.243576 62.8896 1.02029Z" fill="#F6A443"/>
<path d="M90.588 1.02029L88.5391 5.32312L83.9548 6.01534C83.1328 6.13884 82.8033 7.18854 83.3995 7.78977L86.716 11.1371L85.9316 15.8657C85.7904 16.7204 86.6596 17.3606 87.3875 16.9609L91.4885 14.7282L95.5895 16.9609C96.3175 17.3574 97.1867 16.7204 97.0455 15.8657L96.261 11.1371L99.5776 7.78977C100.174 7.18854 99.8443 6.13884 99.0222 6.01534L94.438 5.32312L92.3891 1.02029C92.0219 0.253326 90.9583 0.243576 90.588 1.02029Z" fill="#F6A443"/>
<path d="M118.286 1.02029L116.237 5.32312L111.653 6.01534C110.831 6.13884 110.502 7.18854 111.098 7.78977L114.414 11.1371L113.63 15.8657C113.489 16.7204 114.358 17.3606 115.086 16.9609L119.187 14.7282L123.288 16.9609C124.016 17.3574 124.885 16.7204 124.744 15.8657L123.959 11.1371L127.276 7.78977C127.872 7.18854 127.543 6.13884 126.721 6.01534L122.136 5.32312L120.087 1.02029C119.72 0.253326 118.657 0.243576 118.286 1.02029Z" fill="#F6A443"/>
</svg>
