<svg width="4" height="12" viewBox="0 0 4 12" fill="none" xmlns="http://www.w3.org/2000/svg">
<path d="M1.97585 11.1847C1.5071 11.1847 1.10464 11.0189 0.768466 10.6875C0.437027 10.3513 0.271307 9.94886 0.271307 9.48011C0.271307 9.0161 0.437027 8.61837 0.768466 8.28693C1.10464 7.95549 1.5071 7.78977 1.97585 7.78977C2.4304 7.78977 2.82813 7.95549 3.16903 8.28693C3.50994 8.61837 3.6804 9.0161 3.6804 9.48011C3.6804 9.79261 3.59991 10.0791 3.43892 10.3395C3.28267 10.5952 3.0767 10.8011 2.82102 10.9574C2.56534 11.1089 2.28362 11.1847 1.97585 11.1847ZM1.97585 3.54261C1.5071 3.54261 1.10464 3.37689 0.768466 3.04545C0.437027 2.71401 0.271307 2.31155 0.271307 1.83807C0.271307 1.37405 0.437027 0.978693 0.768466 0.651989C1.10464 0.320549 1.5071 0.154829 1.97585 0.154829C2.4304 0.154829 2.82813 0.320549 3.16903 0.651989C3.50994 0.978693 3.6804 1.37405 3.6804 1.83807C3.6804 2.1553 3.59991 2.44413 3.43892 2.70455C3.28267 2.96023 3.0767 3.16383 2.82102 3.31534C2.56534 3.46686 2.28362 3.54261 1.97585 3.54261Z" fill="black"/>
</svg>
